HIERARCHY
ROOT root
{
	OFFSET	0	13.1	24.9
	CHANNELS 6  Xposition Yposition Zposition Xrotation Yrotation Zrotation
	JOINT spine_1
	{
		OFFSET	0	9.99999	0
		CHANNELS 3  Xrotation Yrotation Zrotation
		JOINT spine_2
		{
			OFFSET	0	112	-10
			CHANNELS 3  Xrotation Yrotation Zrotation
			JOINT spine_3
			{
				OFFSET	0	206.5	19.3
				CHANNELS 3  Xrotation Yrotation Zrotation
				JOINT spine_4
				{
					OFFSET	0	110.4	14.6
					CHANNELS 3  Xrotation Yrotation Zrotation
					JOINT neck_1
					{
						OFFSET	0	71.8	-50.3
						CHANNELS 3  Xrotation Yrotation Zrotation
						JOINT neck_2
						{
							OFFSET	0	86.2	-25.8
							CHANNELS 3  Xrotation Yrotation Zrotation
							JOINT head_ee
							{
								OFFSET	0	179.8	-8.7
								CHANNELS 3  Xrotation Yrotation Zrotation
								End Site
								{
									OFFSET	1	0	0
								}
							}
						}
					}
					JOINT left_clavicle
					{
						OFFSET	-43.2	22.4	-70.8
						CHANNELS 3  Xrotation Yrotation Zrotation
						JOINT left_shoulder
						{
							OFFSET	-93.9	-5.79999	48.7
							CHANNELS 3  Xrotation Yrotation Zrotation
							JOINT left_elbow
							{
								OFFSET	-291.4	-30.8	15.2
								CHANNELS 3  Xrotation Yrotation Zrotation
								JOINT left_lowarm_twist
								{
									OFFSET	-110.7	-3.89999	13.6
									CHANNELS 3  Xrotation Yrotation Zrotation
									JOINT left_hand
									{
										OFFSET	-110.7	-3.89999	13.6
										CHANNELS 3  Xrotation Yrotation Zrotation
										JOINT left_ee
										{
											OFFSET	-80.8	-5.10001	12.1
											CHANNELS 3  Xrotation Yrotation Zrotation
											End Site
											{
												OFFSET	1	0	0
											}
										}
									}
								}
							}
						}
					}
					JOINT right_clavicle
					{
						OFFSET	43.2	22.4	-70.8
						CHANNELS 3  Xrotation Yrotation Zrotation
						JOINT right_shoulder
						{
							OFFSET	93.9	-5.79999	48.7
							CHANNELS 3  Xrotation Yrotation Zrotation
							JOINT right_elbow
							{
								OFFSET	291.4	-30.8	15.2
								CHANNELS 3  Xrotation Yrotation Zrotation
								JOINT right_lowarm_twist
								{
									OFFSET	110.7	-3.89999	13.6
									CHANNELS 3  Xrotation Yrotation Zrotation
									JOINT right_hand
									{
										OFFSET	110.7	-3.89999	13.6
										CHANNELS 3  Xrotation Yrotation Zrotation
										JOINT right_ee
										{
											OFFSET	80.8	-5.10001	12.1
											CHANNELS 3  Xrotation Yrotation Zrotation
											End Site
											{
												OFFSET	1	0	0
											}
										}
									}
								}
							}
						}
					}
				}
			}
		}
	}
	JOINT left_hip
	{
		OFFSET	-82.8	-127.5	0.300001
		CHANNELS 3  Xrotation Yrotation Zrotation
		JOINT left_knee
		{
			OFFSET	-28.2	-396.7	2.2
			CHANNELS 3  Xrotation Yrotation Zrotation
			JOINT left_ankle
			{
				OFFSET	-11.7	-411.3	35.4
				CHANNELS 3  Xrotation Yrotation Zrotation
				JOINT left_toes
				{
					OFFSET	0	-60	-88.6
					CHANNELS 3  Xrotation Yrotation Zrotation
					JOINT left_foot_ee
					{
						OFFSET	-22.5	-16.5	-42.2
						CHANNELS 3  Xrotation Yrotation Zrotation
						End Site
						{
							OFFSET	1	0	0
						}
					}
				}
			}
		}
	}
	JOINT right_hip
	{
		OFFSET	82.8	-127.5	0.300001
		CHANNELS 3  Xrotation Yrotation Zrotation
		JOINT right_knee
		{
			OFFSET	28.2	-396.7	2.2
			CHANNELS 3  Xrotation Yrotation Zrotation
			JOINT right_ankle
			{
				OFFSET	11.7	-411.3	35.4
				CHANNELS 3  Xrotation Yrotation Zrotation
				JOINT right_toes
				{
					OFFSET	0	-60	-88.6
					CHANNELS 3  Xrotation Yrotation Zrotation
					JOINT right_foot_ee
					{
						OFFSET	22.5	-16.5	-42.2
						CHANNELS 3  Xrotation Yrotation Zrotation
						End Site
						{
							OFFSET	1	0	0
						}
					}
				}
			}
		}
	}
}
MOTION
Frames: 6
Frame Time: 0.02
2552.63874611 759.771 -1494.21841685 -133.646517637 77.6375376784 132.862774381 2.8409 0.25241 1.79836 2.84269 0.137483 1.81077 2.84657 -0.156542 1.80923 2.84203 0.131108 1.81125 -17.0702 -18.7876 4.39364 -19.0266 -38.4546 -3.71071 -0.0 0.0 -0.0 -3.39485 16.5198 -3.38282 -12.7032 -43.2679 69.2697 0.187176 -5.29754 0.00865925 -69.9027 -6.53361 5.30137 2.25078 17.6074 21.3682 -0.0 0.0 -0.0 10.6338 -11.4988 -19.8558 -13.4096 28.855 -58.8242 2.08957 45.9828 -0.88668 85.3801 4.47209 8.8835 2.448 -3.75112 -18.0472 0.0 0.0 0.0 22.3739 6.0475 -7.29744 -34.7313 -0.166034 5.24683 25.1433 7.75995 -3.34793 -12.5475 0.0 0.0 -0.0 0.0 -0.0 14.8511 11.0007 -3.38875 5.65483 0.273815 0.823978 24.0287 -8.64526 3.21911 -32.4322 0.0 0.0 0.0 0.0 0.0 
2550.71227373 758.613 -1494.36916458 -128.269494934 77.4859484375 127.258509512 3.00979 0.396506 1.82703 3.0116 0.279464 1.84854 3.0201 -0.0167817 1.86947 3.01533 0.278625 1.84867 -15.4101 -18.417 3.22429 -16.9084 -37.1034 -3.90705 -0.0 0.0 -0.0 -3.48676 15.8612 -3.66451 -13.9729 -43.211 68.7523 0.237925 -6.72211 0.0139732 -69.7596 -6.51535 5.30004 2.45666 14.8285 21.9119 -0.0 0.0 -0.0 10.3211 -10.8584 -19.3569 -12.6994 29.0065 -59.0071 2.13996 46.6644 -0.923127 85.1581 4.44546 8.87339 2.85921 -2.57855 -20.4948 0.0 0.0 0.0 21.9008 4.48286 -6.11955 -24.0602 0.225387 3.6583 18.2634 5.49427 -2.51435 -11.3311 0.0 0.0 -0.0 0.0 -0.0 15.5594 10.1359 -3.29439 5.80887 0.282408 0.846034 22.946 -11.0259 3.0973 -33.2408 0.0 0.0 0.0 0.0 0.0 
2546.4626501 759.582 -1494.35314823 -125.066092954 77.7247682325 124.398282312 3.04181 0.454095 1.82099 3.04359 0.337321 1.84618 3.05395 0.0418596 1.87627 3.0492 0.337605 1.84613 -14.8123 -18.779 4.26784 -16.2969 -38.3899 -2.86887 -0.0 0.0 -0.0 -3.40025 14.7872 -3.74546 -14.612 -42.931 69.2612 0.206108 -5.82983 0.0104947 -70.7198 -6.63791 5.30814 2.50908 17.0043 22.9133 -0.0 0.0 -0.0 9.95778 -10.0998 -18.7682 -12.5977 29.3815 -59.4043 2.17261 47.097 -0.946956 85.2396 4.45524 8.87712 3.24099 -0.2886 -22.339 0.0 0.0 0.0 22.5255 2.38381 -5.79666 -17.0532 0.319081 2.58787 15.673 7.7192 -2.18059 -12.2635 0.0 0.0 -0.0 0.0 -0.0 15.684 9.07106 -3.84714 5.41174 0.260375 0.789125 25.1708 -9.18879 3.35379 -31.6523 0.0 0.0 0.0 0.0 0.0 
2544.65078308 763.742 -1489.91477803 -120.597903216 77.7348387018 119.708029059 2.74855 0.499463 1.90697 2.75049 0.377129 1.93487 2.76285 0.0571861 1.97044 2.75762 0.367603 1.9367 -15.1283 -18.7357 3.54778 -16.6452 -37.8934 -3.64391 -0.0 0.0 -0.0 -3.16848 14.259 -3.47301 -14.8406 -42.2765 69.8184 0.248204 -7.00966 0.0152018 -68.6164 -6.36958 5.28769 2.4611 11.7642 20.9704 -0.0 0.0 -0.0 8.89356 -9.21085 -16.8742 -12.4028 29.4752 -60.197 2.4397 50.3868 -1.14783 85.4016 4.47467 8.88448 2.98509 -1.6381 -21.0291 0.0 0.0 0.0 22.3095 1.19984 -4.46602 -2.99935 0.111821 0.446669 11.6232 2.35015 -1.65003 -12.8292 0.0 0.0 -0.0 0.0 -0.0 16.8117 6.21019 -3.40774 5.1578 0.246495 0.752659 23.35 -11.5096 3.14772 -30.473 0.0 0.0 0.0 0.0 0.0 
2511.14703425 768.466 -1496.3820234 -92.7310481968 76.5274970031 91.3974497505 3.1913 0.245087 2.06961 3.19368 0.112925 2.08101 3.19692 -0.21175 2.07329 3.19094 0.118272 2.08071 -15.2473 -19.3806 1.7767 -16.8393 -38.1095 -5.61471 -0.0 0.0 -0.0 -3.80028 15.3776 -4.27011 -9.04145 -36.3367 72.337 0.454849 -12.698 0.0506097 -61.0199 -5.40986 5.1318 1.88651 0.037288 12.7227 -0.0 0.0 -0.0 9.11339 -7.60683 -17.4127 -15.1672 25.1749 -62.3356 1.70184 40.1288 -0.621624 85.1858 4.44878 8.87466 2.74362 -1.75398 -19.3575 0.0 0.0 0.0 21.1572 -0.20662 -2.64092 1.05255 -0.0447716 -0.155311 8.1346 -4.24889 -1.19061 -9.00334 0.0 0.0 -0.0 0.0 -0.0 20.2764 1.74538 -0.792735 -0.0462503 -0.00190149 -0.00684283 23.7434 -2.51653 3.19253 -29.2694 0.0 0.0 0.0 0.0 0.0 
2511.06701048 768.466 -1495.33192355 -93.5958587343 76.5160409258 92.2867520185 3.1913 0.245087 2.06961 3.19368 0.112925 2.08101 3.19692 -0.21175 2.07329 3.19094 0.118272 2.08071 -15.2473 -19.3806 1.7767 -16.8393 -38.1095 -5.61471 -0.0 0.0 -0.0 -3.80028 15.3776 -4.27011 -9.04145 -36.3367 72.337 0.454849 -12.698 0.0506097 -61.0199 -5.40986 5.1318 1.88651 0.037288 12.7227 -0.0 0.0 -0.0 9.11339 -7.60683 -17.4127 -15.1672 25.1749 -62.3356 1.70184 40.1288 -0.621624 85.1858 4.44878 8.87466 2.74362 -1.75398 -19.3575 0.0 0.0 0.0 21.1572 -0.20662 -2.64092 1.05255 -0.0447716 -0.155311 8.1346 -4.24889 -1.19061 -9.00334 0.0 0.0 -0.0 0.0 -0.0 20.2764 1.74538 -0.792735 -0.0462503 -0.00190149 -0.00684283 23.7434 -2.51653 3.19253 -29.2694 0.0 0.0 0.0 0.0 0.0 
